<svg xmlns="http://www.w3.org/2000/svg" width="1440" height="900"><path d="M723,482L736,393L605,369Z" fill="#306fd7" stroke="#306fd7" stroke-width="1.51"/><path d="M605,369L564,502L723,482Z" fill="#306fd7" stroke="#306fd7" stroke-width="1.51"/><path d="M605,369L489,395L564,502Z" fill="#336cd2" stroke="#336cd2" stroke-width="1.51"/><path d="M735,243L599,257L605,369Z" fill="#3569cd" stroke="#3569cd" stroke-width="1.51"/><path d="M723,482L828,357L736,393Z" fill="#2e72da" stroke="#2e72da" stroke-width="1.51"/><path d="M735,243L605,369L736,393Z" fill="#336cd2" stroke="#336cd2" stroke-width="1.51"/><path d="M605,369L599,257L489,395Z" fill="#3669cd" stroke="#3669cd" stroke-width="1.51"/><path d="M828,357L735,243L736,393Z" fill="#316ed5" stroke="#316ed5" stroke-width="1.51"/><path d="M723,482L867,545L828,357Z" fill="#2a75e0" stroke="#2a75e0" stroke-width="1.51"/><path d="M746,654L867,545L723,482Z" fill="#2579e5" stroke="#2579e5" stroke-width="1.51"/><path d="M564,502L746,654L723,482Z" fill="#2a75df" stroke="#2a75df" stroke-width="1.51"/><path d="M564,502L558,649L746,654Z" fill="#2976e1" stroke="#2976e1" stroke-width="1.51"/><path d="M436,539L558,649L564,502Z" fill="#2e71da" stroke="#2e71da" stroke-width="1.51"/><path d="M489,395L436,539L564,502Z" fill="#326dd3" stroke="#326dd3" stroke-width="1.51"/><path d="M566,101L441,222L599,257Z" fill="#3760bf" stroke="#3760bf" stroke-width="1.51"/><path d="M828,357L872,227L735,243Z" fill="#326dd3" stroke="#326dd3" stroke-width="1.51"/><path d="M967,274L872,227L828,357Z" fill="#3070d8" stroke="#3070d8" stroke-width="1.51"/><path d="M746,654L858,650L867,545Z" fill="#1f7dea" stroke="#1f7dea" stroke-width="1.51"/><path d="M599,257L441,222L489,395Z" fill="#3865c7" stroke="#3865c7" stroke-width="1.51"/><path d="M489,395L332,527L436,539Z" fill="#346bd0" stroke="#346bd0" stroke-width="1.51"/><path d="M735,106L599,257L735,243Z" fill="#3565c6" stroke="#3565c6" stroke-width="1.51"/><path d="M436,539L465,676L558,649Z" fill="#2d73dc" stroke="#2d73dc" stroke-width="1.51"/><path d="M558,649L604,760L746,654Z" fill="#277ae6" stroke="#277ae6" stroke-width="1.51"/><path d="M746,654L863,777L858,650Z" fill="#1f80ee" stroke="#1f80ee" stroke-width="1.51"/><path d="M867,545L974,506L828,357Z" fill="#2678e4" stroke="#2678e4" stroke-width="1.51"/><path d="M973,668L974,506L867,545Z" fill="#1c7eec" stroke="#1c7eec" stroke-width="1.51"/><path d="M974,506L977,362L828,357Z" fill="#2877e1" stroke="#2877e1" stroke-width="1.51"/><path d="M872,227L735,106L735,243Z" fill="#3267c9" stroke="#3267c9" stroke-width="1.51"/><path d="M465,676L604,760L558,649Z" fill="#2c78e2" stroke="#2c78e2" stroke-width="1.51"/><path d="M735,106L566,101L599,257Z" fill="#3360bd" stroke="#3360bd" stroke-width="1.51"/><path d="M977,362L967,274L828,357Z" fill="#2c73dc" stroke="#2c73dc" stroke-width="1.51"/><path d="M872,227L880,93L735,106Z" fill="#2f65c3" stroke="#2f65c3" stroke-width="1.51"/><path d="M301,352L332,527L489,395Z" fill="#3566c9" stroke="#3566c9" stroke-width="1.51"/><path d="M436,539L347,662L465,676Z" fill="#2e71da" stroke="#2e71da" stroke-width="1.51"/><path d="M338,241L301,352L489,395Z" fill="#3862c3" stroke="#3862c3" stroke-width="1.51"/><path d="M338,241L489,395L441,222Z" fill="#3a62c3" stroke="#3a62c3" stroke-width="1.51"/><path d="M604,760L694,797L746,654Z" fill="#2c7ee8" stroke="#2c7ee8" stroke-width="1.51"/><path d="M359,152L338,241L441,222Z" fill="#395cb9" stroke="#395cb9" stroke-width="1.51"/><path d="M566,101L461,102L441,222Z" fill="#355bb5" stroke="#355bb5" stroke-width="1.51"/><path d="M465,676L453,756L604,760Z" fill="#3079e0" stroke="#3079e0" stroke-width="1.51"/><path d="M604,760L602,876L694,797Z" fill="#3580e6" stroke="#3580e6" stroke-width="1.51"/><path d="M347,662L453,756L465,676Z" fill="#3075dc" stroke="#3075dc" stroke-width="1.51"/><path d="M195,547L347,662L332,527Z" fill="#2e69ca" stroke="#2e69ca" stroke-width="1.51"/><path d="M332,527L347,662L436,539Z" fill="#306dd3" stroke="#306dd3" stroke-width="1.51"/><path d="M974,506L1079,409L977,362Z" fill="#237ae6" stroke="#237ae6" stroke-width="1.51"/><path d="M858,650L973,668L867,545Z" fill="#197fee" stroke="#197fee" stroke-width="1.51"/><path d="M863,777L973,668L858,650Z" fill="#1b83f1" stroke="#1b83f1" stroke-width="1.51"/><path d="M1006,114L880,93L872,227Z" fill="#2c68c8" stroke="#2c68c8" stroke-width="1.51"/><path d="M735,106L606,-17L566,101Z" fill="#2f5aaf" stroke="#2f5aaf" stroke-width="1.51"/><path d="M566,101L476,-16L461,102Z" fill="#3156aa" stroke="#3156aa" stroke-width="1.51"/><path d="M694,797L863,777L746,654Z" fill="#2981eb" stroke="#2981eb" stroke-width="1.51"/><path d="M179,410L332,527L301,352Z" fill="#3161bf" stroke="#3161bf" stroke-width="1.51"/><path d="M461,102L359,152L441,222Z" fill="#365ab4" stroke="#365ab4" stroke-width="1.51"/><path d="M1127,495L1079,409L974,506Z" fill="#207deb" stroke="#207deb" stroke-width="1.51"/><path d="M977,362L1094,234L967,274Z" fill="#2b74dd" stroke="#2b74dd" stroke-width="1.51"/><path d="M967,274L1006,114L872,227Z" fill="#2f6dd2" stroke="#2f6dd2" stroke-width="1.51"/><path d="M461,102L356,-10L359,152Z" fill="#3354a7" stroke="#3354a7" stroke-width="1.51"/><path d="M749,-28L606,-17L735,106Z" fill="#2c58ab" stroke="#2c58ab" stroke-width="1.51"/><path d="M453,756L602,876L604,760Z" fill="#367ce2" stroke="#367ce2" stroke-width="1.51"/><path d="M694,797L820,928L863,777Z" fill="#3386ed" stroke="#3386ed" stroke-width="1.51"/><path d="M602,876L694,885L694,797Z" fill="#3882e7" stroke="#3882e7" stroke-width="1.51"/><path d="M836,-8L749,-28L735,106Z" fill="#2a5baf" stroke="#2a5baf" stroke-width="1.51"/><path d="M880,93L836,-8L735,106Z" fill="#2b5fb7" stroke="#2b5fb7" stroke-width="1.51"/><path d="M1094,234L1006,114L967,274Z" fill="#2c70d6" stroke="#2c70d6" stroke-width="1.51"/><path d="M1002,24L836,-8L880,93Z" fill="#2760b7" stroke="#2760b7" stroke-width="1.51"/><path d="M1079,409L1094,234L977,362Z" fill="#2977e2" stroke="#2977e2" stroke-width="1.51"/><path d="M1127,621L1127,495L974,506Z" fill="#1c81ef" stroke="#1c81ef" stroke-width="1.51"/><path d="M1268,387L1094,234L1079,409Z" fill="#2f7ae2" stroke="#2f7ae2" stroke-width="1.51"/><path d="M606,-17L476,-16L566,101Z" fill="#2e54a6" stroke="#2e54a6" stroke-width="1.51"/><path d="M560,-111L476,-16L606,-17Z" fill="#2b4f9b" stroke="#2b4f9b" stroke-width="1.51"/><path d="M179,410L195,547L332,527Z" fill="#2f63bf" stroke="#2f63bf" stroke-width="1.51"/><path d="M347,662L308,805L453,756Z" fill="#3474d9" stroke="#3474d9" stroke-width="1.51"/><path d="M179,410L301,352L191,286Z" fill="#325bb5" stroke="#325bb5" stroke-width="1.51"/><path d="M191,286L301,352L338,241Z" fill="#365cb7" stroke="#365cb7" stroke-width="1.51"/><path d="M191,286L338,241L229,137Z" fill="#3557ae" stroke="#3557ae" stroke-width="1.51"/><path d="M229,137L338,241L359,152Z" fill="#3557ad" stroke="#3557ad" stroke-width="1.51"/><path d="M863,777L1009,790L973,668Z" fill="#2186f3" stroke="#2186f3" stroke-width="1.51"/><path d="M973,668L1127,621L974,506Z" fill="#1182f2" stroke="#1182f2" stroke-width="1.51"/><path d="M978,896L1009,790L863,777Z" fill="#2b89f4" stroke="#2b89f4" stroke-width="1.51"/><path d="M1133,757L1127,621L973,668Z" fill="#1087f8" stroke="#1087f8" stroke-width="1.51"/><path d="M453,756L490,928L602,876Z" fill="#3c7ee1" stroke="#3c7ee1" stroke-width="1.51"/><path d="M202,778L308,805L347,662Z" fill="#3170d0" stroke="#3170d0" stroke-width="1.51"/><path d="M231,21L229,137L359,152Z" fill="#304f9f" stroke="#304f9f" stroke-width="1.51"/><path d="M704,1039L820,928L694,885Z" fill="#3f89eb" stroke="#3f89eb" stroke-width="1.51"/><path d="M694,885L820,928L694,797Z" fill="#3885eb" stroke="#3885eb" stroke-width="1.51"/><path d="M195,547L173,623L347,662Z" fill="#2a68c7" stroke="#2a68c7" stroke-width="1.51"/><path d="M93,538L173,623L195,547Z" fill="#2962bc" stroke="#2962bc" stroke-width="1.51"/><path d="M1006,114L1002,24L880,93Z" fill="#2764bf" stroke="#2764bf" stroke-width="1.51"/><path d="M711,-147L606,-17L749,-28Z" fill="#27529e" stroke="#27529e" stroke-width="1.51"/><path d="M1101,113L1002,24L1006,114Z" fill="#2667c3" stroke="#2667c3" stroke-width="1.51"/><path d="M602,876L704,1039L694,885Z" fill="#3f86e7" stroke="#3f86e7" stroke-width="1.51"/><path d="M317,888L490,928L453,756Z" fill="#3e7bdd" stroke="#3e7bdd" stroke-width="1.51"/><path d="M476,-16L356,-10L461,102Z" fill="#3051a1" stroke="#3051a1" stroke-width="1.51"/><path d="M1094,234L1101,113L1006,114Z" fill="#2b6dcf" stroke="#2b6dcf" stroke-width="1.51"/><path d="M1239,234L1101,113L1094,234Z" fill="#3272d5" stroke="#3272d5" stroke-width="1.51"/><path d="M476,-16L484,-154L356,-10Z" fill="#2c4b95" stroke="#2c4b95" stroke-width="1.51"/><path d="M711,-147L560,-111L606,-17Z" fill="#274f98" stroke="#274f98" stroke-width="1.51"/><path d="M832,-108L749,-28L836,-8Z" fill="#2556a6" stroke="#2556a6" stroke-width="1.51"/><path d="M1127,495L1268,387L1079,409Z" fill="#2c7fe8" stroke="#2c7fe8" stroke-width="1.51"/><path d="M1127,621L1207,510L1127,495Z" fill="#2583ef" stroke="#2583ef" stroke-width="1.51"/><path d="M1216,669L1207,510L1127,621Z" fill="#2387f3" stroke="#2387f3" stroke-width="1.51"/><path d="M951,-110L832,-108L836,-8Z" fill="#2257a5" stroke="#2257a5" stroke-width="1.51"/><path d="M1009,790L1133,757L973,668Z" fill="#1989f8" stroke="#1989f8" stroke-width="1.51"/><path d="M820,928L978,896L863,777Z" fill="#3389f2" stroke="#3389f2" stroke-width="1.51"/><path d="M1122,918L1133,757L1009,790Z" fill="#2b8ef8" stroke="#2b8ef8" stroke-width="1.51"/><path d="M308,805L317,888L453,756Z" fill="#3a77d8" stroke="#3a77d8" stroke-width="1.51"/><path d="M193,913L317,888L308,805Z" fill="#3c75cf" stroke="#3c75cf" stroke-width="1.51"/><path d="M832,-108L711,-147L749,-28Z" fill="#24529d" stroke="#24529d" stroke-width="1.51"/><path d="M173,623L202,778L347,662Z" fill="#2a6bcb" stroke="#2a6bcb" stroke-width="1.51"/><path d="M173,623L39,675L202,778Z" fill="#2766c1" stroke="#2766c1" stroke-width="1.51"/><path d="M179,410L93,538L195,547Z" fill="#2c5fb8" stroke="#2c5fb8" stroke-width="1.51"/><path d="M45,387L93,538L179,410Z" fill="#2c5aaf" stroke="#2c5aaf" stroke-width="1.51"/><path d="M102,270L179,410L191,286Z" fill="#3157ad" stroke="#3157ad" stroke-width="1.51"/><path d="M229,137L102,270L191,286Z" fill="#3354a8" stroke="#3354a8" stroke-width="1.51"/><path d="M71,149L102,270L229,137Z" fill="#2f4f9d" stroke="#2f4f9d" stroke-width="1.51"/><path d="M356,-10L231,21L359,152Z" fill="#2f4e9c" stroke="#2f4e9c" stroke-width="1.51"/><path d="M212,-151L231,21L356,-10Z" fill="#284588" stroke="#284588" stroke-width="1.51"/><path d="M1238,105L1101,20L1101,113Z" fill="#2c6ac3" stroke="#2c6ac3" stroke-width="1.51"/><path d="M1101,113L1101,20L1002,24Z" fill="#2665bf" stroke="#2665bf" stroke-width="1.51"/><path d="M1002,24L951,-110L836,-8Z" fill="#235bad" stroke="#235bad" stroke-width="1.51"/><path d="M1133,757L1216,669L1127,621Z" fill="#1d8af8" stroke="#1d8af8" stroke-width="1.51"/><path d="M1207,510L1268,387L1127,495Z" fill="#2d81ea" stroke="#2d81ea" stroke-width="1.51"/><path d="M1347,543L1268,387L1207,510Z" fill="#3284eb" stroke="#3284eb" stroke-width="1.51"/><path d="M560,-111L484,-154L476,-16Z" fill="#294b93" stroke="#294b93" stroke-width="1.51"/><path d="M711,-147L484,-154L560,-111Z" fill="#264a90" stroke="#264a90" stroke-width="1.51"/><path d="M1268,387L1239,234L1094,234Z" fill="#3679df" stroke="#3679df" stroke-width="1.51"/><path d="M1127,-129L951,-110L1002,24Z" fill="#1e5bab" stroke="#1e5bab" stroke-width="1.51"/><path d="M832,-108L951,-110L711,-147Z" fill="#21529c" stroke="#21529c" stroke-width="1.51"/><path d="M622,1064L704,1039L602,876Z" fill="#4488e6" stroke="#4488e6" stroke-width="1.51"/><path d="M820,928L883,1006L978,896Z" fill="#3a8df2" stroke="#3a8df2" stroke-width="1.51"/><path d="M622,1064L602,876L490,928Z" fill="#4384e3" stroke="#4384e3" stroke-width="1.51"/><path d="M102,270L45,387L179,410Z" fill="#2f57aa" stroke="#2f57aa" stroke-width="1.51"/><path d="M978,896L1122,918L1009,790Z" fill="#2e8ff8" stroke="#2e8ff8" stroke-width="1.51"/><path d="M704,1039L883,1006L820,928Z" fill="#418cee" stroke="#418cee" stroke-width="1.51"/><path d="M704,1039L982,1062L883,1006Z" fill="#4490f0" stroke="#4490f0" stroke-width="1.51"/><path d="M456,1050L622,1064L490,928Z" fill="#4885e1" stroke="#4885e1" stroke-width="1.51"/><path d="M231,21L71,149L229,137Z" fill="#2d4b95" stroke="#2d4b95" stroke-width="1.51"/><path d="M-46,260L-33,383L45,387Z" fill="#2b509d" stroke="#2b509d" stroke-width="1.51"/><path d="M357,1016L456,1050L490,928Z" fill="#4881dd" stroke="#4881dd" stroke-width="1.51"/><path d="M357,1016L490,928L317,888Z" fill="#457ddb" stroke="#457ddb" stroke-width="1.51"/><path d="M1239,234L1238,105L1101,113Z" fill="#3270ce" stroke="#3270ce" stroke-width="1.51"/><path d="M1101,20L1127,-129L1002,24Z" fill="#2260b3" stroke="#2260b3" stroke-width="1.51"/><path d="M1375,157L1238,105L1239,234Z" fill="#3974d0" stroke="#3974d0" stroke-width="1.51"/><path d="M193,913L357,1016L317,888Z" fill="#4179d0" stroke="#4179d0" stroke-width="1.51"/><path d="M484,-154L343,-161L356,-10Z" fill="#2a468c" stroke="#2a468c" stroke-width="1.51"/><path d="M231,21L63,-23L71,149Z" fill="#294588" stroke="#294588" stroke-width="1.51"/><path d="M711,-147L343,-161L484,-154Z" fill="#26478a" stroke="#26478a" stroke-width="1.51"/><path d="M93,538L39,675L173,623Z" fill="#2561ba" stroke="#2561ba" stroke-width="1.51"/><path d="M202,778L193,913L308,805Z" fill="#3771cb" stroke="#3771cb" stroke-width="1.51"/><path d="M-55,658L39,675L93,538Z" fill="#225eb3" stroke="#225eb3" stroke-width="1.51"/><path d="M1093,1046L1122,918L978,896Z" fill="#3893f9" stroke="#3893f9" stroke-width="1.51"/><path d="M1133,757L1245,792L1216,669Z" fill="#2a8df8" stroke="#2a8df8" stroke-width="1.51"/><path d="M57,789L193,913L202,778Z" fill="#336dc2" stroke="#336dc2" stroke-width="1.51"/><path d="M1216,669L1347,543L1207,510Z" fill="#2c88f2" stroke="#2c88f2" stroke-width="1.51"/><path d="M1241,888L1245,792L1133,757Z" fill="#3491f8" stroke="#3491f8" stroke-width="1.51"/><path d="M1268,387L1354,367L1239,234Z" fill="#397de1" stroke="#397de1" stroke-width="1.51"/><path d="M1369,664L1347,543L1216,669Z" fill="#2d8bf6" stroke="#2d8bf6" stroke-width="1.51"/><path d="M1347,543L1354,367L1268,387Z" fill="#3783e9" stroke="#3783e9" stroke-width="1.51"/><path d="M45,387L-69,506L93,538Z" fill="#2858a9" stroke="#2858a9" stroke-width="1.51"/><path d="M-46,260L45,387L102,270Z" fill="#2d519f" stroke="#2d519f" stroke-width="1.51"/><path d="M-64,805L57,789L39,675Z" fill="#2963b4" stroke="#2963b4" stroke-width="1.51"/><path d="M39,675L57,789L202,778Z" fill="#2b67bd" stroke="#2b67bd" stroke-width="1.51"/><path d="M1122,918L1241,888L1133,757Z" fill="#3591f9" stroke="#3591f9" stroke-width="1.51"/><path d="M883,1006L982,1062L978,896Z" fill="#3d91f4" stroke="#3d91f4" stroke-width="1.51"/><path d="M622,1064L982,1062L704,1039Z" fill="#478eec" stroke="#478eec" stroke-width="1.51"/><path d="M1238,105L1227,-14L1101,20Z" fill="#2c67bd" stroke="#2c67bd" stroke-width="1.51"/><path d="M1397,7L1227,-14L1238,105Z" fill="#326abc" stroke="#326abc" stroke-width="1.51"/><path d="M1213,-100L1127,-129L1101,20Z" fill="#245fad" stroke="#245fad" stroke-width="1.51"/><path d="M951,-110L1127,-129L711,-147Z" fill="#1e549f" stroke="#1e549f" stroke-width="1.51"/><path d="M-49,133L-46,260L71,149Z" fill="#2b488f" stroke="#2b488f" stroke-width="1.51"/><path d="M71,149L-46,260L102,270Z" fill="#2e4e9b" stroke="#2e4e9b" stroke-width="1.51"/><path d="M343,-161L212,-151L356,-10Z" fill="#274383" stroke="#274383" stroke-width="1.51"/><path d="M-180,362L-69,506L-33,383Z" fill="#264f9a" stroke="#264f9a" stroke-width="1.51"/><path d="M-33,383L-69,506L45,387Z" fill="#2853a1" stroke="#2853a1" stroke-width="1.51"/><path d="M1245,792L1369,664L1216,669Z" fill="#2d8ef8" stroke="#2d8ef8" stroke-width="1.51"/><path d="M1222,1013L1241,888L1122,918Z" fill="#3f96f9" stroke="#3f96f9" stroke-width="1.51"/><path d="M1483,381L1389,278L1354,367Z" fill="#3f82e3" stroke="#3f82e3" stroke-width="1.51"/><path d="M1354,367L1389,278L1239,234Z" fill="#3d7de0" stroke="#3d7de0" stroke-width="1.51"/><path d="M1366,793L1369,664L1245,792Z" fill="#3591f9" stroke="#3591f9" stroke-width="1.51"/><path d="M1500,512L1483,381L1354,367Z" fill="#3f86e8" stroke="#3f86e8" stroke-width="1.51"/><path d="M212,-151L63,-23L231,21Z" fill="#25407f" stroke="#25407f" stroke-width="1.51"/><path d="M-69,506L-55,658L93,538Z" fill="#245aab" stroke="#245aab" stroke-width="1.51"/><path d="M982,1062L1093,1046L978,896Z" fill="#3c93f8" stroke="#3c93f8" stroke-width="1.51"/><path d="M1389,278L1375,157L1239,234Z" fill="#3e7ada" stroke="#3e7ada" stroke-width="1.51"/><path d="M1344,-135L1213,-100L1227,-14Z" fill="#2b61aa" stroke="#2b61aa" stroke-width="1.51"/><path d="M1227,-14L1213,-100L1101,20Z" fill="#2962b2" stroke="#2962b2" stroke-width="1.51"/><path d="M73,1018L231,1064L193,913Z" fill="#4075c4" stroke="#4075c4" stroke-width="1.51"/><path d="M193,913L231,1064L357,1016Z" fill="#4479ce" stroke="#4479ce" stroke-width="1.51"/><path d="M357,1016L231,1064L456,1050Z" fill="#4a80d7" stroke="#4a80d7" stroke-width="1.51"/><path d="M456,1050L231,1064L622,1064Z" fill="#4d84dd" stroke="#4d84dd" stroke-width="1.51"/><path d="M55,937L193,913L57,789Z" fill="#366dbd" stroke="#366dbd" stroke-width="1.51"/><path d="M-46,260L-180,362L-33,383Z" fill="#284c95" stroke="#284c95" stroke-width="1.51"/><path d="M-55,20L-49,133L71,149Z" fill="#264283" stroke="#264283" stroke-width="1.51"/><path d="M-54,921L55,937L57,789Z" fill="#3369b5" stroke="#3369b5" stroke-width="1.51"/><path d="M1241,888L1366,793L1245,792Z" fill="#3a94f8" stroke="#3a94f8" stroke-width="1.51"/><path d="M1500,512L1354,367L1347,543Z" fill="#3b87eb" stroke="#3b87eb" stroke-width="1.51"/><path d="M1381,877L1366,793L1241,888Z" fill="#4096f9" stroke="#4096f9" stroke-width="1.51"/><path d="M63,-23L-55,20L71,149Z" fill="#25407f" stroke="#25407f" stroke-width="1.51"/><path d="M212,-151L97,-147L63,-23Z" fill="#213a73" stroke="#213a73" stroke-width="1.51"/><path d="M-35,-154L97,-147L212,-151Z" fill="#1e3669" stroke="#1e3669" stroke-width="1.51"/><path d="M1093,1046L1222,1013L1122,918Z" fill="#4197f9" stroke="#4197f9" stroke-width="1.51"/><path d="M-206,767L-64,805L-55,658Z" fill="#245ca8" stroke="#245ca8" stroke-width="1.51"/><path d="M-55,658L-64,805L39,675Z" fill="#235fb0" stroke="#235fb0" stroke-width="1.51"/><path d="M1500,512L1347,543L1369,664Z" fill="#378cf2" stroke="#378cf2" stroke-width="1.51"/><path d="M1389,278L1503,286L1375,157Z" fill="#437edc" stroke="#437edc" stroke-width="1.51"/><path d="M-35,-154L-55,20L63,-23Z" fill="#20386e" stroke="#20386e" stroke-width="1.51"/><path d="M-193,240L-180,362L-46,260Z" fill="#28488e" stroke="#28488e" stroke-width="1.51"/><path d="M-85,1022L73,1018L55,937Z" fill="#3b6db5" stroke="#3b6db5" stroke-width="1.51"/><path d="M55,937L73,1018L193,913Z" fill="#3c70be" stroke="#3c70be" stroke-width="1.51"/><path d="M1527,676L1500,512L1369,664Z" fill="#3990f5" stroke="#3990f5" stroke-width="1.51"/><path d="M-193,240L-46,260L-49,133Z" fill="#2a468b" stroke="#2a468b" stroke-width="1.51"/><path d="M-69,506L-214,513L-55,658Z" fill="#2155a1" stroke="#2155a1" stroke-width="1.51"/><path d="M1375,157L1397,7L1238,105Z" fill="#376fc5" stroke="#376fc5" stroke-width="1.51"/><path d="M1526,102L1397,7L1375,157Z" fill="#3c72c5" stroke="#3c72c5" stroke-width="1.51"/><path d="M1366,793L1488,780L1369,664Z" fill="#3a94f9" stroke="#3a94f9" stroke-width="1.51"/><path d="M1222,1013L1381,877L1241,888Z" fill="#4398f9" stroke="#4398f9" stroke-width="1.51"/><path d="M1483,381L1503,286L1389,278Z" fill="#4382e1" stroke="#4382e1" stroke-width="1.51"/><path d="M1601,283L1503,286L1483,381Z" fill="#4784e1" stroke="#4784e1" stroke-width="1.51"/><path d="M-64,805L-54,921L57,789Z" fill="#2f65b1" stroke="#2f65b1" stroke-width="1.51"/><path d="M-165,903L-54,921L-64,805Z" fill="#2f63aa" stroke="#2f63aa" stroke-width="1.51"/><path d="M-155,111L-193,240L-49,133Z" fill="#264180" stroke="#264180" stroke-width="1.51"/><path d="M-202,-27L-155,111L-55,20Z" fill="#1f386e" stroke="#1f386e" stroke-width="1.51"/><path d="M-55,20L-155,111L-49,133Z" fill="#233e7a" stroke="#233e7a" stroke-width="1.51"/><path d="M-193,240L-214,513L-180,362Z" fill="#24498d" stroke="#24498d" stroke-width="1.51"/><path d="M-180,362L-214,513L-69,506Z" fill="#234e97" stroke="#234e97" stroke-width="1.51"/><path d="M1397,7L1344,-135L1227,-14Z" fill="#2f65b0" stroke="#2f65b0" stroke-width="1.51"/><path d="M1213,-100L1344,-135L1127,-129Z" fill="#275da5" stroke="#275da5" stroke-width="1.51"/><path d="M1127,-129L1344,-135L711,-147Z" fill="#1b57a3" stroke="#1b57a3" stroke-width="1.51"/><path d="M711,-147L1623,-149L343,-161Z" fill="#1e529a" stroke="#1e529a" stroke-width="1.51"/><path d="M1488,-33L1344,-135L1397,7Z" fill="#3367af" stroke="#3367af" stroke-width="1.51"/><path d="M1381,877L1488,780L1366,793Z" fill="#4197f9" stroke="#4197f9" stroke-width="1.51"/><path d="M1488,780L1527,676L1369,664Z" fill="#3a93f9" stroke="#3a93f9" stroke-width="1.51"/><path d="M1500,512L1594,492L1483,381Z" fill="#428aeb" stroke="#428aeb" stroke-width="1.51"/><path d="M97,-147L-35,-154L63,-23Z" fill="#1e376b" stroke="#1e376b" stroke-width="1.51"/><path d="M343,-161L-35,-154L212,-151Z" fill="#203971" stroke="#203971" stroke-width="1.51"/><path d="M-214,513L-221,658L-55,658Z" fill="#1c559e" stroke="#1c559e" stroke-width="1.51"/><path d="M1601,283L1526,102L1503,286Z" fill="#487fda" stroke="#487fda" stroke-width="1.51"/><path d="M1503,286L1526,102L1375,157Z" fill="#437ad3" stroke="#437ad3" stroke-width="1.51"/><path d="M-221,658L-206,767L-55,658Z" fill="#1d58a3" stroke="#1d58a3" stroke-width="1.51"/><path d="M1527,676L1594,492L1500,512Z" fill="#408ff2" stroke="#408ff2" stroke-width="1.51"/><path d="M1526,102L1488,-33L1397,7Z" fill="#3a6ebb" stroke="#3a6ebb" stroke-width="1.51"/><path d="M1655,382L1601,283L1483,381Z" fill="#4887e3" stroke="#4887e3" stroke-width="1.51"/><path d="M1608,-7L1501,-121L1488,-33Z" fill="#386aaf" stroke="#386aaf" stroke-width="1.51"/><path d="M1222,1013L1368,1066L1381,877Z" fill="#4a9cf9" stroke="#4a9cf9" stroke-width="1.51"/><path d="M1381,877L1513,888L1488,780Z" fill="#469af9" stroke="#469af9" stroke-width="1.51"/><path d="M1093,1046L1368,1066L1222,1013Z" fill="#499cf9" stroke="#499cf9" stroke-width="1.51"/><path d="M982,1062L1368,1066L1093,1046Z" fill="#469af9" stroke="#469af9" stroke-width="1.51"/><path d="M622,1064L1368,1066L982,1062Z" fill="#4396f6" stroke="#4396f6" stroke-width="1.51"/><path d="M231,1064L1368,1066L622,1064Z" fill="#488eeb" stroke="#488eeb" stroke-width="1.51"/><path d="M-206,767L-165,903L-64,805Z" fill="#2a5ea4" stroke="#2a5ea4" stroke-width="1.51"/><path d="M-54,921L-85,1022L55,937Z" fill="#3769b0" stroke="#3769b0" stroke-width="1.51"/><path d="M-165,903L-85,1022L-54,921Z" fill="#3365a9" stroke="#3365a9" stroke-width="1.51"/><path d="M73,1018L-197,1060L231,1064Z" fill="#3f70b6" stroke="#3f70b6" stroke-width="1.51"/><path d="M1527,676L1655,639L1594,492Z" fill="#4193f4" stroke="#4193f4" stroke-width="1.51"/><path d="M1488,780L1599,757L1527,676Z" fill="#4297f9" stroke="#4297f9" stroke-width="1.51"/><path d="M1483,1007L1513,888L1381,877Z" fill="#4c9df9" stroke="#4c9df9" stroke-width="1.51"/><path d="M-172,-137L-202,-27L-55,20Z" fill="#1b3262" stroke="#1b3262" stroke-width="1.51"/><path d="M-155,111L-202,-27L-193,240Z" fill="#213b74" stroke="#213b74" stroke-width="1.51"/><path d="M-193,240L-202,-27L-214,513Z" fill="#274384" stroke="#274384" stroke-width="1.51"/><path d="M-214,513L-202,-27L-221,658Z" fill="#23488c" stroke="#23488c" stroke-width="1.51"/><path d="M1513,888L1599,757L1488,780Z" fill="#479af9" stroke="#479af9" stroke-width="1.51"/><path d="M1594,492L1655,382L1483,381Z" fill="#468ae8" stroke="#468ae8" stroke-width="1.51"/><path d="M1767,379L1655,382L1764,531Z" fill="#4b8ee9" stroke="#4b8ee9" stroke-width="1.51"/><path d="M1608,-7L1488,-33L1526,102Z" fill="#3d70bb" stroke="#3d70bb" stroke-width="1.51"/><path d="M1647,109L1526,102L1601,283Z" fill="#477dd1" stroke="#477dd1" stroke-width="1.51"/><path d="M1488,-33L1501,-121L1344,-135Z" fill="#3264a9" stroke="#3264a9" stroke-width="1.51"/><path d="M1368,1066L1483,1007L1381,877Z" fill="#4e9ef9" stroke="#4e9ef9" stroke-width="1.51"/><path d="M1513,888L1650,911L1599,757Z" fill="#4d9ef9" stroke="#4d9ef9" stroke-width="1.51"/><path d="M-35,-154L-172,-137L-55,20Z" fill="#1b3261" stroke="#1b3261" stroke-width="1.51"/><path d="M1766,624L1655,639L1729,773Z" fill="#4599f9" stroke="#4599f9" stroke-width="1.51"/><path d="M1599,757L1655,639L1527,676Z" fill="#4197f9" stroke="#4197f9" stroke-width="1.51"/><path d="M1758,232L1647,109L1601,283Z" fill="#4d82d8" stroke="#4d82d8" stroke-width="1.51"/><path d="M1647,109L1608,-7L1526,102Z" fill="#4275c2" stroke="#4275c2" stroke-width="1.51"/><path d="M-165,903L-197,1060L-85,1022Z" fill="#3565a4" stroke="#3565a4" stroke-width="1.51"/><path d="M-85,1022L-197,1060L73,1018Z" fill="#3a6aac" stroke="#3a6aac" stroke-width="1.51"/><path d="M-206,767L-197,1060L-165,903Z" fill="#2e5fa0" stroke="#2e5fa0" stroke-width="1.51"/><path d="M-221,658L-197,1060L-206,767Z" fill="#285b9e" stroke="#285b9e" stroke-width="1.51"/><path d="M1606,1020L1650,911L1513,888Z" fill="#53a2f9" stroke="#53a2f9" stroke-width="1.51"/><path d="M1655,382L1758,232L1601,283Z" fill="#4d87e0" stroke="#4d87e0" stroke-width="1.51"/><path d="M1745,-6L1623,-149L1608,-7Z" fill="#3d6eaf" stroke="#3d6eaf" stroke-width="1.51"/><path d="M1764,531L1655,382L1594,492Z" fill="#498fec" stroke="#498fec" stroke-width="1.51"/><path d="M1764,531L1594,492L1655,639Z" fill="#4793f1" stroke="#4793f1" stroke-width="1.51"/><path d="M1766,624L1764,531L1655,639Z" fill="#4796f4" stroke="#4796f4" stroke-width="1.51"/><path d="M1767,379L1758,232L1655,382Z" fill="#4d89e2" stroke="#4d89e2" stroke-width="1.51"/><path d="M1368,1066L1606,1020L1483,1007Z" fill="#55a3f9" stroke="#55a3f9" stroke-width="1.51"/><path d="M1483,1007L1606,1020L1513,888Z" fill="#53a2f9" stroke="#53a2f9" stroke-width="1.51"/><path d="M1745,-6L1608,-7L1647,109Z" fill="#4374bc" stroke="#4374bc" stroke-width="1.51"/><path d="M1608,-7L1623,-149L1501,-121Z" fill="#3969aa" stroke="#3969aa" stroke-width="1.51"/><path d="M1501,-121L1623,-149L1344,-135Z" fill="#3263a3" stroke="#3263a3" stroke-width="1.51"/><path d="M1344,-135L1623,-149L711,-147Z" fill="#255ba2" stroke="#255ba2" stroke-width="1.51"/><path d="M1729,773L1599,757L1650,911Z" fill="#4e9ef9" stroke="#4e9ef9" stroke-width="1.51"/><path d="M1729,773L1655,639L1599,757Z" fill="#479af9" stroke="#479af9" stroke-width="1.51"/><path d="M1764,531L1766,624L1767,379Z" fill="#4992ee" stroke="#4992ee" stroke-width="1.51"/><path d="M1751,935L1729,773L1650,911Z" fill="#53a2f9" stroke="#53a2f9" stroke-width="1.51"/><path d="M1766,624L1776,150L1767,379Z" fill="#4c8be6" stroke="#4c8be6" stroke-width="1.51"/><path d="M1767,379L1776,150L1758,232Z" fill="#4f86dd" stroke="#4f86dd" stroke-width="1.51"/><path d="M1758,232L1776,150L1647,109Z" fill="#4b7fd1" stroke="#4b7fd1" stroke-width="1.51"/><path d="M1776,150L1745,-6L1647,109Z" fill="#4779c4" stroke="#4779c4" stroke-width="1.51"/><path d="M1754,1003L1751,935L1650,911Z" fill="#58a5f9" stroke="#58a5f9" stroke-width="1.51"/><path d="M1729,773L1751,935L1766,624Z" fill="#4d9ef9" stroke="#4d9ef9" stroke-width="1.51"/><path d="M1606,1020L1754,1003L1650,911Z" fill="#59a6f9" stroke="#59a6f9" stroke-width="1.51"/><path d="M1751,935L1754,1003L1766,624Z" fill="#52a1f9" stroke="#52a1f9" stroke-width="1.51"/><path d="M1368,1066L1754,1003L1606,1020Z" fill="#59a5f9" stroke="#59a5f9" stroke-width="1.51"/><path d="M1776,150L1761,-143L1745,-6Z" fill="#4273b8" stroke="#4273b8" stroke-width="1.51"/><path d="M1745,-6L1761,-143L1623,-149Z" fill="#3c6ba9" stroke="#3c6ba9" stroke-width="1.51"/></svg>